<svg xmlns="http://www.w3.org/2000/svg" width="30" height="30" viewBox="0 0 30 30" fill="none">
  <path d="M20.4539 3.4106C20.4539 3.03562 20.7607 2.72882 21.1357 2.72882H25.2261C25.6011 2.72882 25.9079 3.03562 25.9079 3.4106V7.50128C25.9079 7.87626 25.6011 8.18306 25.2261 8.18306C24.8512 8.18306 24.5444 7.87626 24.5444 7.50128V4.09238H21.1357C20.7607 4.09238 20.4539 3.78558 20.4539 3.4106ZM29.8006 14.5168L15.484 0.19942C15.2182 -0.0664735 14.7887 -0.0664735 14.5228 0.19942L0.199409 14.5168C-0.0664697 14.7827 -0.0664697 15.2122 0.199409 15.4781C0.465288 15.744 0.894785 15.744 1.16066 15.4781L15 1.64479L28.8325 15.4781C28.9689 15.6145 29.1393 15.6758 29.3166 15.6758C29.4938 15.6758 29.6642 15.6076 29.8006 15.4781C30.0665 15.2122 30.0665 14.7827 29.8006 14.5168ZM26.5896 15.0009C26.2146 15.0009 25.9079 15.3077 25.9079 15.6826V28.6364H19.0904V21.8186C19.0904 19.562 17.2566 17.728 15 17.728C12.7434 17.728 10.9096 19.562 10.9096 21.8186V28.6364H4.09215V15.6826C4.09215 15.3077 3.78537 15.0009 3.41041 15.0009C3.03545 15.0009 2.72867 15.3077 2.72867 15.6826V29.3182C2.72867 29.6932 3.03545 30 3.41041 30H11.5913C11.9663 30 12.273 29.6932 12.273 29.3182V21.8186C12.273 20.3119 13.4934 19.0915 15 19.0915C16.5066 19.0915 17.727 20.3119 17.727 21.8186V29.3182C17.727 29.6932 18.0337 30 18.4087 30H26.5896C26.9646 30 27.2713 29.6932 27.2713 29.3182V15.6826C27.2713 15.3077 26.9646 15.0009 26.5896 15.0009Z" fill="#0D7C66"/>
</svg>