<svg xmlns="http://www.w3.org/2000/svg" width="30" height="30" viewBox="0 0 30 30" fill="none">
  <path fill-rule="evenodd" clip-rule="evenodd" d="M0 5.23256C0 2.34269 2.34269 0 5.23256 0H24.7674C27.6573 0 30 2.34269 30 5.23256V24.7674C30 27.6573 27.6573 30 24.7674 30H13.6047C13.0267 30 12.5581 29.5314 12.5581 28.9535C12.5581 28.3755 13.0267 27.907 13.6047 27.907H24.7674C26.5013 27.907 27.907 26.5013 27.907 24.7674V5.23256C27.907 3.49864 26.5013 2.09302 24.7674 2.09302H5.23256C3.49864 2.09302 2.09302 3.49864 2.09302 5.23256V24.7674C2.09302 26.5013 3.49864 27.907 5.23256 27.907H8.02326C8.60122 27.907 9.06977 28.3755 9.06977 28.9535C9.06977 29.5314 8.60122 30 8.02326 30H5.23256C2.34269 30 0 27.6573 0 24.7674V5.23256Z" fill="#0D7C66"/>
  <path fill-rule="evenodd" clip-rule="evenodd" d="M4.18555 8.02307C4.18555 7.44511 4.65409 6.97656 5.23206 6.97656H10.1158C12.6203 6.97656 14.6507 9.00689 14.6507 11.5114C14.6507 14.016 12.6203 16.0463 10.1158 16.0463H5.23206C4.65409 16.0463 4.18555 15.5778 4.18555 14.9998V8.02307ZM6.27857 9.06959V13.9533H10.1158C11.4644 13.9533 12.5576 12.8601 12.5576 11.5114C12.5576 10.1628 11.4644 9.06959 10.1158 9.06959H6.27857Z" fill="#0D7C66"/>
  <path fill-rule="evenodd" clip-rule="evenodd" d="M4.18555 15C4.18555 14.422 4.65409 13.9535 5.23206 13.9535H10.1158C12.6203 13.9535 14.6507 15.9838 14.6507 18.4883C14.6507 20.9929 12.6203 23.0232 10.1158 23.0232H5.23206C4.65409 23.0232 4.18555 22.5547 4.18555 21.9767V15ZM6.27857 16.0465V20.9302H10.1158C11.4644 20.9302 12.5576 19.837 12.5576 18.4883C12.5576 17.1397 11.4644 16.0465 10.1158 16.0465H6.27857ZM18.3176 18.8372H25.4646C26.0426 18.8372 26.5111 18.3686 26.5111 17.7907C26.5111 14.9008 24.1685 12.5581 21.2786 12.5581C18.3887 12.5581 16.046 14.9008 16.046 17.7907C16.046 20.6806 18.3887 23.0232 21.2786 23.0232C22.7119 23.0232 24.0122 22.4456 24.9563 21.5128C25.3674 21.1066 25.3713 20.4439 24.9651 20.0329C24.5589 19.6218 23.8962 19.6177 23.4852 20.0241C22.917 20.5854 22.1391 20.9302 21.2786 20.9302C19.9115 20.9302 18.7487 20.0566 18.3176 18.8372ZM21.2786 14.6511C19.9115 14.6511 18.7487 15.5248 18.3176 16.7442H24.2395C23.8085 15.5248 22.6456 14.6511 21.2786 14.6511ZM16.7437 9.41858C16.7437 8.84061 17.2122 8.37207 17.7902 8.37207H24.7669C25.3449 8.37207 25.8135 8.84061 25.8135 9.41858C25.8135 9.99655 25.3449 10.4651 24.7669 10.4651H17.7902C17.2122 10.4651 16.7437 9.99655 16.7437 9.41858Z" fill="#0D7C66"/>
</svg>