<svg xmlns="http://www.w3.org/2000/svg" width="30" height="22" viewBox="0 0 30 22" fill="none">
  <path d="M26.8619 0H3.13815C2.30615 0.000957583 1.5085 0.335635 0.92019 0.930609C0.331877 1.52558 0.000946861 2.33227 0 3.17369V18.8263C0.000946861 19.6677 0.331877 20.4744 0.92019 21.0694C1.5085 21.6644 2.30615 21.999 3.13815 22H26.8618C27.6938 21.999 28.4915 21.6644 29.0798 21.0694C29.6681 20.4744 29.9991 19.6677 30 18.8263V3.17369C29.9991 2.33227 29.6682 1.52557 29.0799 0.930595C28.4916 0.335615 27.6939 0.000940848 26.8619 0ZM21.2823 10.9957L28.7448 5.07244V18.3218L21.2823 10.9957ZM3.13815 1.26947H26.8618C27.361 1.27005 27.8396 1.47085 28.1926 1.82784C28.5456 2.18482 28.7442 2.66883 28.7447 3.17369V3.45868L16.6685 13.0444C16.227 13.393 15.6828 13.5821 15.1226 13.5816C14.5625 13.5812 14.0186 13.3911 13.5777 13.0418L1.25526 3.45627V3.17369C1.25583 2.66883 1.45438 2.18482 1.80737 1.82784C2.16036 1.47085 2.63895 1.27005 3.13815 1.26947ZM8.93985 11.0355L1.25526 18.3474V5.05784L8.93985 11.0355ZM26.8619 20.7305H3.13815C2.81671 20.7303 2.50066 20.6469 2.22009 20.4883C1.93953 20.3296 1.70378 20.101 1.53531 19.8241L9.9477 11.8201L12.8086 14.0455C13.4702 14.5681 14.2857 14.8519 15.1252 14.8517C15.9648 14.8515 16.7801 14.5673 17.4415 14.0443L20.2858 11.7871L28.468 19.819C28.2998 20.0973 28.0638 20.3272 27.7826 20.4868C27.5014 20.6464 27.1844 20.7303 26.8619 20.7305Z" fill="#0D7C66"/>
</svg>