<svg xmlns="http://www.w3.org/2000/svg" width="30" height="30" viewBox="0 0 30 30" fill="none">
  <path d="M25.6066 4.39336C22.7735 1.56029 19.0066 0 15 0C10.9934 0 7.22654 1.56029 4.39342 4.39336C1.56023 7.22654 0 10.9934 0 15C0 19.0066 1.56023 22.7735 4.39342 25.6066C7.22654 28.4397 10.9934 30 15 30C19.0066 30 22.7735 28.4397 25.6066 25.6066C28.4398 22.7735 30 19.0066 30 15C30 10.9934 28.4398 7.22654 25.6066 4.39336ZM12.1447 28.531V23.4237C12.1447 22.8524 12.2554 22.2955 12.4736 21.7687C12.6928 21.2404 13.0084 20.7681 13.4116 20.3648C13.5659 20.2104 13.6217 19.9832 13.5564 19.775C13.491 19.5668 13.3154 19.4122 13.1006 19.3737C13.0677 19.3678 9.78785 18.7522 8.2885 16.0436C6.88371 13.5059 9.06088 11.402 9.15299 11.3149C9.34617 11.1343 9.39451 10.8467 9.27088 10.613C8.7501 9.62795 8.98037 8.50301 9.15445 7.94074C10.1605 8.08564 11.2907 8.90197 11.6809 9.24316C11.8819 9.41977 12.177 9.43775 12.398 9.28676C13.6288 8.44629 16.3319 8.44629 17.5627 9.28676C17.7833 9.4374 18.0782 9.41941 18.2793 9.24357C18.67 8.90209 19.8003 8.08564 20.8068 7.94086C20.981 8.504 21.2106 9.62854 20.6904 10.6132C20.5676 10.8458 20.616 11.1329 20.8071 11.3137C20.9004 11.4021 23.077 13.506 21.6722 16.0437C20.8934 17.4507 19.6256 18.2815 18.6991 18.7307C17.6948 19.2176 16.8673 19.3724 16.8601 19.3738C16.6452 19.4123 16.4696 19.567 16.4043 19.7753C16.339 19.9835 16.3948 20.2108 16.5492 20.365C17.3661 21.1813 17.816 22.2677 17.816 23.4238V28.5397C16.9065 28.7285 15.9647 28.8281 15 28.8281C14.0214 28.8281 13.0664 28.7252 12.1447 28.531ZM18.9879 28.2411V23.4237C18.9879 22.2809 18.642 21.1918 17.9997 20.276C18.3444 20.1621 18.7614 20.0027 19.2104 19.785C20.7575 19.0348 21.9633 17.9373 22.6975 16.6111C23.4664 15.2221 23.5189 13.7123 22.8491 12.2449C22.5485 11.5862 22.1646 11.0773 21.9039 10.7739C22.6024 8.99414 21.7783 7.17123 21.7403 7.08902C21.6485 6.89045 21.4538 6.75961 21.2352 6.74965C19.8798 6.68742 18.4703 7.61684 17.8416 8.09297C17.087 7.70578 16.0719 7.48863 14.9804 7.48863C13.8889 7.48863 12.8737 7.70578 12.1191 8.09297C11.4904 7.61684 10.0806 6.6873 8.72619 6.74965C8.5077 6.75961 8.31299 6.89039 8.22111 7.08891C8.18314 7.171 7.35832 8.99402 8.05746 10.774C7.79666 11.0773 7.4127 11.5862 7.11199 12.2449C6.44197 13.7123 6.4943 15.2221 7.26322 16.6112C8.50588 18.8559 10.7091 19.8665 11.961 20.2782C11.7351 20.602 11.5445 20.9502 11.391 21.32C11.1135 21.99 10.9728 22.6978 10.9728 23.4237V24.366C10.515 24.5941 9.98555 24.608 9.50959 24.4008C9.00006 24.1791 8.62852 23.743 8.49023 23.2045C8.11875 21.758 7.10016 20.8686 5.62207 20.7002C5.30051 20.663 5.01023 20.8945 4.97361 21.2161C4.93699 21.5376 5.16791 21.8279 5.48947 21.8646C6.49236 21.9788 7.10262 22.5125 7.35521 23.496C7.58396 24.387 8.19873 25.1084 9.04195 25.4754C9.41771 25.6389 9.81375 25.7202 10.2081 25.7202C10.4659 25.7202 10.7227 25.6842 10.9728 25.6151V28.2294C5.30619 26.501 1.17188 21.2245 1.17188 15C1.17188 7.37514 7.37514 1.17188 15 1.17188C22.6249 1.17188 28.8281 7.37514 28.8281 15C28.8281 21.2389 24.6746 26.5251 18.9879 28.2411Z" fill="#0D7C66"/>
</svg>