<svg xmlns="http://www.w3.org/2000/svg" width="30" height="30" viewBox="0 0 30 30" fill="none">
  <path fill-rule="evenodd" clip-rule="evenodd" d="M2.40741 1.66667C2.0019 1.66667 1.66667 2.0019 1.66667 2.40741C1.66667 16.7278 13.2722 28.3333 27.5926 28.3333C27.9981 28.3333 28.3333 27.9981 28.3333 27.5926V22.0991C28.3333 21.6936 27.9981 21.3583 27.5926 21.3583C25.5517 21.3583 23.5588 21.0292 21.7118 20.4191L21.7028 20.4161C21.4539 20.3308 21.1576 20.3941 20.9568 20.5948L17.0648 24.4869L16.5247 24.2102C11.9158 21.8488 8.13608 18.0863 5.78875 13.4733L5.51433 12.934L9.40517 9.04317C9.61558 8.83275 9.67642 8.548 9.59442 8.28142C8.98575 6.43667 8.65742 4.46183 8.65742 2.40741C8.65742 2.0019 8.32217 1.66667 7.91667 1.66667H2.40741ZM0 2.40741C0 1.08143 1.08143 0 2.40741 0H7.91667C9.24267 0 10.3241 1.08143 10.3241 2.40741C10.3241 4.28558 10.6245 6.08625 11.1793 7.76542L11.1812 7.77125L11.1829 7.777C11.4451 8.61092 11.2536 9.55175 10.5837 10.2217L7.55458 13.2508C9.65967 17.1276 12.869 20.3256 16.7504 22.4443L19.7783 19.4163C20.4265 18.7682 21.3873 18.5478 22.2391 18.838C23.9166 19.3917 25.7314 19.6917 27.5926 19.6917C28.9186 19.6917 30 20.7731 30 22.0991V27.5926C30 28.9186 28.9186 30 27.5926 30C12.3518 30 0 17.6482 0 2.40741Z" fill="#0D7C66"/>
</svg>